<svg width="20" height="19" viewBox="0 0 20 19" fill="none" xmlns="http://www.w3.org/2000/svg">
<path d="M18.5156 0C18.7656 0 18.9583 0.046875 19.0938 0.140625C19.2292 0.223958 19.3281 0.380208 19.3906 0.609375C19.4635 0.838542 19.5 1.17188 19.5 1.60938C19.5 2.04688 19.4635 2.38021 19.3906 2.60938C19.3281 2.83854 19.2292 2.99479 19.0938 3.07812C18.9583 3.16146 18.7656 3.20312 18.5156 3.20312H17.4531L11.7812 17.875C11.6354 18.25 11.4115 18.5104 11.1094 18.6562C10.8073 18.8125 10.3385 18.8906 9.70312 18.8906C9.06771 18.8906 8.59896 18.8125 8.29688 18.6562C8.00521 18.5 7.79167 18.2396 7.65625 17.875L2.1875 3.20312H0.984375C0.734375 3.20312 0.541667 3.16146 0.40625 3.07812C0.270833 2.99479 0.171875 2.83854 0.109375 2.60938C0.0364583 2.38021 0 2.04688 0 1.60938C0 1.17188 0.0364583 0.838542 0.109375 0.609375C0.171875 0.380208 0.270833 0.223958 0.40625 0.140625C0.541667 0.046875 0.734375 0 0.984375 0H7.76562C8.01562 0 8.20833 0.046875 8.34375 0.140625C8.47917 0.223958 8.57812 0.380208 8.64062 0.609375C8.71354 0.838542 8.75 1.17188 8.75 1.60938C8.75 2.04688 8.71354 2.38021 8.64062 2.60938C8.57812 2.83854 8.47917 2.99479 8.34375 3.07812C8.20833 3.16146 8.01562 3.20312 7.76562 3.20312H6.375L9.73438 12.7812L13.3125 3.20312H12.2031C11.9531 3.20312 11.7604 3.16146 11.625 3.07812C11.4896 2.99479 11.3854 2.83854 11.3125 2.60938C11.25 2.38021 11.2188 2.04688 11.2188 1.60938C11.2188 1.17188 11.25 0.838542 11.3125 0.609375C11.3854 0.380208 11.4896 0.223958 11.625 0.140625C11.7604 0.046875 11.9531 0 12.2031 0H18.5156Z" fill="#FF9300"/>
</svg>
