<svg xmlns="http://www.w3.org/2000/svg" xmlns:xlink="http://www.w3.org/1999/xlink">
<symbol id="zova-svg-icon-home-icon-daisy-lock" xmlns="http://www.w3.org/2000/svg" fill="currentColor" viewBox="0 0 16 16"><path fill-rule="evenodd" d="M14 6a4 4 0 0 1-4.899 3.899l-1.955 1.955a.5.5 0 0 1-.353.146H5v1.5a.5.5 0 0 1-.5.5h-2a.5.5 0 0 1-.5-.5v-2.293a.5.5 0 0 1 .146-.353l3.955-3.955A4 4 0 1 1 14 6m-4-2a.75.75 0 0 0 0 1.5.5.5 0 0 1 .5.5.75.75 0 0 0 1.5 0 2 2 0 0 0-2-2" clip-rule="evenodd"/></symbol>
<symbol id="zova-svg-icon-home-icon-daisy-person" xmlns="http://www.w3.org/2000/svg" fill="currentColor" viewBox="0 0 16 16"><path d="M8 8a3 3 0 1 0 0-6 3 3 0 0 0 0 6m4.735 6c.618 0 1.093-.561.872-1.139a6.002 6.002 0 0 0-11.215 0c-.22.578.254 1.139.872 1.139z"/></symbol>
</svg>