<svg width="16" height="20" viewBox="0 0 16 20" fill="none" xmlns="http://www.w3.org/2000/svg">
<path d="M14.1094 0C14.7552 0 15.1979 0.0729167 15.4375 0.21875C15.6771 0.364583 15.7969 0.619792 15.7969 0.984375V6.98438C15.7969 7.33854 15.6354 7.59375 15.3125 7.75C15 7.89583 14.474 7.96875 13.7344 7.96875C13.2448 7.96875 12.8646 7.9375 12.5938 7.875C12.3333 7.80208 12.151 7.69792 12.0469 7.5625C11.9427 7.42708 11.8906 7.23438 11.8906 6.98438C11.8906 5.94271 11.6042 5.10938 11.0312 4.48438C10.4688 3.85938 9.66146 3.54688 8.60938 3.54688C7.16146 3.54688 6.0625 4.06771 5.3125 5.10938C4.5625 6.15104 4.1875 7.65104 4.1875 9.60938C4.1875 11.5469 4.58333 13.0469 5.375 14.1094C6.17708 15.1615 7.30729 15.6875 8.76562 15.6875C9.67188 15.6875 10.5417 15.5677 11.375 15.3281C12.2083 15.0781 13.1146 14.7031 14.0938 14.2031C14.2604 14.1198 14.4167 14.0781 14.5625 14.0781C15.0521 14.0781 15.4583 14.5104 15.7812 15.375C15.9271 15.7708 16 16.125 16 16.4375C16 16.9688 15.7604 17.349 15.2812 17.5781C13.0521 18.6823 10.8281 19.2344 8.60938 19.2344C6.90104 19.2344 5.39583 18.8438 4.09375 18.0625C2.79167 17.2812 1.78125 16.1667 1.0625 14.7188C0.354167 13.2604 0 11.5573 0 9.60938C0 7.67188 0.348958 5.97917 1.04688 4.53125C1.74479 3.07292 2.70833 1.95312 3.9375 1.17188C5.17708 0.390625 6.57812 0 8.14062 0C9.96354 0 11.3177 0.65625 12.2031 1.96875V0.984375C12.2031 0.630208 12.3542 0.380208 12.6562 0.234375C12.9583 0.078125 13.4427 0 14.1094 0Z" fill="#FF9300"/>
</svg>
